REM DIRINDEX 1\2,1\3,1\4,1\5
REM DIRNAME "folder01","folder02","folder03","folder04","folder05"
TITLE ""
FILE "1Q_j_2277-2290.mp3" MP3
  TRACK 01 AUDIO
    TITLE "3:cjc172_0532"
    INDEX 01 00:00:00
  TRACK 02 AUDIO
    TITLE "0:"
    INDEX 01 00:01:25
  TRACK 03 AUDIO
    TITLE "4:cjc172_0533"
    INDEX 01 00:01:35
  TRACK 04 AUDIO
    TITLE "0:"
    INDEX 01 00:03:52
  TRACK 05 AUDIO
    TITLE "5:cjc172_0534"
    INDEX 01 00:03:60
  TRACK 06 AUDIO
    TITLE "0:"
    INDEX 01 00:09:35
  TRACK 07 AUDIO
    TITLE "3:cjc172_0535"
    INDEX 01 00:10:05
  TRACK 08 AUDIO
    TITLE "0:"
    INDEX 01 00:11:08
  TRACK 09 AUDIO
    TITLE "4:cjc172_0536"
    INDEX 01 00:11:24
  TRACK 10 AUDIO
    TITLE "0:"
    INDEX 01 00:14:48
  TRACK 11 AUDIO
    TITLE "5:cjc172_0537"
    INDEX 01 00:14:57
  TRACK 12 AUDIO
    TITLE "0:"
    INDEX 01 00:20:60
  TRACK 13 AUDIO
    TITLE "3:cjc172_0538"
    INDEX 01 00:21:32
  TRACK 14 AUDIO
    TITLE "0:"
    INDEX 01 00:22:53
  TRACK 15 AUDIO
    TITLE "4:cjc172_0539"
    INDEX 01 00:22:61
  TRACK 16 AUDIO
    TITLE "0:"
    INDEX 01 00:24:50
  TRACK 17 AUDIO
    TITLE "5:cjc172_0540"
    INDEX 01 00:24:60
  TRACK 18 AUDIO
    TITLE "0:"
    INDEX 01 00:28:54
  TRACK 19 AUDIO
    TITLE "3:cjc172_0541"
    INDEX 01 00:29:24
  TRACK 20 AUDIO
    TITLE "0:"
    INDEX 01 00:30:51
  TRACK 21 AUDIO
    TITLE "4:cjc172_0542"
    INDEX 01 00:30:58
  TRACK 22 AUDIO
    TITLE "0:"
    INDEX 01 00:32:61
  TRACK 23 AUDIO
    TITLE "5:cjc172_0543"
    INDEX 01 00:32:69
  TRACK 24 AUDIO
    TITLE "0:"
    INDEX 01 00:36:65
  TRACK 25 AUDIO
    TITLE "3:cjc172_0544"
    INDEX 01 00:37:35
  TRACK 26 AUDIO
    TITLE "0:"
    INDEX 01 00:38:44
  TRACK 27 AUDIO
    TITLE "4:cjc172_0545"
    INDEX 01 00:38:52
  TRACK 28 AUDIO
    TITLE "0:"
    INDEX 01 00:40:04
  TRACK 29 AUDIO
    TITLE "5:cjc172_0546"
    INDEX 01 00:40:10
  TRACK 30 AUDIO
    TITLE "0:"
    INDEX 01 00:45:64
  TRACK 31 AUDIO
    TITLE "3:cjc172_0547"
    INDEX 01 00:46:34
  TRACK 32 AUDIO
    TITLE "0:"
    INDEX 01 00:47:55
  TRACK 33 AUDIO
    TITLE "4:cjc172_0548"
    INDEX 01 00:47:65
  TRACK 34 AUDIO
    TITLE "0:"
    INDEX 01 00:49:54
  TRACK 35 AUDIO
    TITLE "5:cjc172_0549"
    INDEX 01 00:49:60
  TRACK 36 AUDIO
    TITLE "0:"
    INDEX 01 00:54:53
  TRACK 37 AUDIO
    TITLE "3:cjc172_0550"
    INDEX 01 00:55:25
  TRACK 38 AUDIO
    TITLE "0:"
    INDEX 01 00:56:56
  TRACK 39 AUDIO
    TITLE "4:cjc172_0551"
    INDEX 01 00:56:64
  TRACK 40 AUDIO
    TITLE "0:"
    INDEX 01 01:00:56
  TRACK 41 AUDIO
    TITLE "5:cjc172_0552"
    INDEX 01 01:00:61
  TRACK 42 AUDIO
    TITLE "0:"
    INDEX 01 01:06:23
  TRACK 43 AUDIO
    TITLE "3:cjc172_0553"
    INDEX 01 01:06:68
  TRACK 44 AUDIO
    TITLE "0:"
    INDEX 01 01:08:24
  TRACK 45 AUDIO
    TITLE "4:cjc172_0554"
    INDEX 01 01:08:32
  TRACK 46 AUDIO
    TITLE "0:"
    INDEX 01 01:10:56
  TRACK 47 AUDIO
    TITLE "5:cjc172_0555"
    INDEX 01 01:10:64
  TRACK 48 AUDIO
    TITLE "0:"
    INDEX 01 01:16:74
  TRACK 49 AUDIO
    TITLE "3:cjc172_0556"
    INDEX 01 01:17:44
  TRACK 50 AUDIO
    TITLE "0:"
    INDEX 01 01:18:59
  TRACK 51 AUDIO
    TITLE "4:cjc172_0557"
    INDEX 01 01:18:69
  TRACK 52 AUDIO
    TITLE "0:"
    INDEX 01 01:21:70
  TRACK 53 AUDIO
    TITLE "5:cjc172_0558"
    INDEX 01 01:22:00
  TRACK 54 AUDIO
    TITLE "0:"
    INDEX 01 01:27:17
  TRACK 55 AUDIO
    TITLE "3:cjc172_0559"
    INDEX 01 01:27:62
  TRACK 56 AUDIO
    TITLE "0:"
    INDEX 01 01:29:12
  TRACK 57 AUDIO
    TITLE "4:cjc172_0560"
    INDEX 01 01:29:26
  TRACK 58 AUDIO
    TITLE "0:"
    INDEX 01 01:32:03
  TRACK 59 AUDIO
    TITLE "5:cjc172_0561"
    INDEX 01 01:32:09
  TRACK 60 AUDIO
    TITLE "0:"
    INDEX 01 01:38:44
  TRACK 61 AUDIO
    TITLE "3:cjc172_0562"
    INDEX 01 01:39:15
  TRACK 62 AUDIO
    TITLE "0:"
    INDEX 01 01:40:24
  TRACK 63 AUDIO
    TITLE "4:cjc172_0563"
    INDEX 01 01:40:41
  TRACK 64 AUDIO
    TITLE "0:"
    INDEX 01 01:42:68
  TRACK 65 AUDIO
    TITLE "5:cjc172_0564"
    INDEX 01 01:43:01
  TRACK 66 AUDIO
    TITLE "0:"
    INDEX 01 01:47:41
  TRACK 67 AUDIO
    TITLE "3:cjc172_0565"
    INDEX 01 01:48:13
  TRACK 68 AUDIO
    TITLE "0:"
    INDEX 01 01:49:34
  TRACK 69 AUDIO
    TITLE "4:cjc172_0566"
    INDEX 01 01:49:40
  TRACK 70 AUDIO
    TITLE "0:"
    INDEX 01 01:53:32
  TRACK 71 AUDIO
    TITLE "5:cjc172_0567"
    INDEX 01 01:53:40
  TRACK 72 AUDIO
    TITLE "0:"
    INDEX 01 01:59:51
  TRACK 73 AUDIO
    TITLE "3:cjc172_0568"
    INDEX 01 02:00:24
  TRACK 74 AUDIO
    TITLE "0:"
    INDEX 01 02:01:34
  TRACK 75 AUDIO
    TITLE "4:cjc172_0569"
    INDEX 01 02:01:45
  TRACK 76 AUDIO
    TITLE "0:"
    INDEX 01 02:04:60
  TRACK 77 AUDIO
    TITLE "5:cjc172_0570"
    INDEX 01 02:04:65
  TRACK 78 AUDIO
    TITLE "0:"
    INDEX 01 02:09:53
  TRACK 79 AUDIO
    TITLE "3:cjc172_0571"
    INDEX 01 02:10:23
  TRACK 80 AUDIO
    TITLE "0:"
    INDEX 01 02:11:44
  TRACK 81 AUDIO
    TITLE "4:cjc172_0572"
    INDEX 01 02:11:52
  TRACK 82 AUDIO
    TITLE "0:"
    INDEX 01 02:13:51
  TRACK 83 AUDIO
    TITLE "5:cjc172_0573"
    INDEX 01 02:13:58
  TRACK 84 AUDIO
    TITLE "0:"
    INDEX 01 02:19:40
